<svg xmlns="http://www.w3.org/2000/svg" viewBox="0 0 512.001 512.001" xmlns:v="https://vecta.io/nano"><path fill="#005a95" d="M216.303 254.699c-104.616 0-191.005 78.035-204.136 179.073a23.729 23.729 0 0 0 5.714 18.729 23.76 23.76 0 0 0 17.847 8.06h361.149a23.745 23.745 0 0 0 17.827-8.068c4.508-5.126 6.613-11.953 5.734-18.722-13.13-101.037-99.519-179.072-204.135-179.072z"/><path fill="#31aaef" d="M216.303 254.699c-104.616 0-191.004 78.035-204.135 179.073a23.729 23.729 0 0 0 5.714 18.729 23.76 23.76 0 0 0 17.847 8.06h180.574V254.699z"/><path fill="#003c61" d="M313.597 279.138c-28.977-15.573-62.094-24.439-97.294-24.439s-68.317 8.866-97.294 24.439c22.858 33.968 57.935 55.735 97.294 55.735s74.436-21.768 97.294-55.735z"/><ellipse cx="216.3" cy="148.763" fill="#ffdbac" rx="124.718" ry="148.763"/><path fill="#ffeed9" d="M216.303 0c-68.882 0-124.72 66.603-124.72 148.762s55.838 148.762 124.719 148.762V0h.001z"/><circle cx="403.393" cy="415.358" r="96.639" fill="#ff9800"/><path fill="#f7dc4d" d="M306.749 415.358c0 53.375 43.268 96.643 96.643 96.643V318.715c-53.375 0-96.643 43.268-96.643 96.643z"/><path fill="#003c61" d="M441.742 398.644h-21.636v-21.636c0-9.23-7.483-16.714-16.714-16.714s-16.714 7.483-16.714 16.714v21.636H365.04c-9.23 0-16.714 7.483-16.714 16.714s7.483 16.714 16.714 16.714h21.638v21.636c0 9.23 7.483 16.714 16.714 16.714s16.714-7.483 16.714-16.714v-21.636h21.636c9.23 0 16.714-7.483 16.714-16.714s-7.482-16.714-16.714-16.714z"/><path fill="#005a95" d="M403.392 360.294c-9.23 0-16.714 7.483-16.714 16.714v21.636H365.04c-9.23 0-16.714 7.483-16.714 16.714s7.483 16.714 16.714 16.714h21.638v21.636c0 9.23 7.483 16.714 16.714 16.714V360.294z"/></svg>