<svg xmlns="http://www.w3.org/2000/svg" viewBox="0 0 368 368" xmlns:v="https://vecta.io/nano"><circle cx="184" cy="184" r="176" fill="#80d440"/><path fill="#6ea62a" d="M184 368C82.4 368 0 285.6 0 184S82.4 0 184 0s184 82.4 184 184-82.4 184-184 184zm0-352C91.2 16 16 91.2 16 184s75.2 168 168 168 168-75.2 168-168S276.8 16 184 16z"/><path fill="#67cb1b" d="M238.4 25.2c44.4 30 73.6 81.2 73.6 138.8 0 92.8-75.2 168-168 168-19.2 0-37.2-3.2-54.4-9.2 26.8 18.4 59.6 29.2 94.4 29.2 92.8 0 168-75.2 168-168 0-73.6-47.6-136.4-113.6-158.8z"/><g fill="#fff"><path d="M184 284c-4.4 0-8-3.6-8-8V92c0-4.4 3.6-8 8-8s8 3.6 8 8v184c0 4.4-3.6 8-8 8z"/><path d="M276 192H92c-4.4 0-8-3.6-8-8s3.6-8 8-8h184c4.4 0 8 3.6 8 8s-3.6 8-8 8z"/></g></svg>