<svg xmlns="http://www.w3.org/2000/svg" viewBox="0 0 284.014 284.014" xmlns:v="https://vecta.io/nano"><path fill="#16a085" d="M227.157 84.284c4.69 2.23 6.7 7.86 4.47 12.55l-2.88 6.06-145.69-69.19 2.88-6.06a9.44 9.44 0 0 1 12.56-4.47l128.66 61.11z"/><path fill="#1abc9c" d="M181.687 102.724l-12.24 146.88c-.67 8.08-7.55 14.41-15.66 14.41h-73.54c-8.1 0-14.98-6.33-15.65-14.41l-12.24-146.88h129.33z"/><path d="M235.737 66.214c14.65 6.96 20.91 24.55 13.95 39.2l-7.16 15.09c-1.72 3.61-5.3 5.72-9.04 5.72a9.97 9.97 0 0 1-4.29-.97l-28.2-13.4-11.62 139.41c-1.53 18.36-17.16 32.75-35.59 32.75h-73.54c-18.42 0-34.05-14.39-35.58-32.75l-13.15-157.71c-.23-2.78.72-5.54 2.61-7.6s4.56-3.23 7.36-3.23h98.18l-74.22-35.25a9.993 9.993 0 0 1-4.74-13.32l7.17-15.09c6.96-14.66 24.54-20.92 39.2-13.96l28 13.3 1.46-3.05c3.07-6.48 8.49-11.38 15.25-13.79 6.76-2.4 14.05-2.03 20.53 1.05l24.13 11.45c13.37 6.36 19.09 22.41 12.74 35.79l-1.46 3.06 28.01 13.3zm-4.11 30.62c2.23-4.69.22-10.32-4.47-12.55l-128.66-61.11a9.44 9.44 0 0 0-12.56 4.47l-2.88 6.06 145.69 69.19 2.88-6.06zm-40.51-55.56a6.87 6.87 0 0 0-3.26-9.14l-24.12-11.46a6.806 6.806 0 0 0-5.24-.26 6.792 6.792 0 0 0-3.9 3.52l-1.45 3.05 36.52 17.35 1.45-3.06zm-21.67 208.33l12.24-146.88H52.357l12.24 146.88c.67 8.08 7.55 14.41 15.65 14.41h73.54c8.11 0 14.99-6.33 15.66-14.41z"/></svg>