<svg xmlns="http://www.w3.org/2000/svg" viewBox="0 0 411.6 411.6" xmlns:v="https://vecta.io/nano"><path fill="#9ce0ff" d="M296 379.65H40c-17.6 0-32-14.4-32-32v-224c0-17.6 14.4-32 32-32h256c17.6 0 32 14.4 32 32v224c0 17.6-14.4 32-32 32z"/><path fill="#00aeef" d="M296 387.65H40c-22 0-40-18-40-40v-224c0-22 18-40 40-40h228c4.4 0 8 3.6 8 8s-3.6 8-8 8H40c-13.2 0-24 10.8-24 24v224c0 13.2 10.8 24 24 24h256c13.2 0 24-10.8 24-24v-168c0-4.4 3.6-8 8-8s8 3.6 8 8v168c0 22-18 40-40 40z"/><path fill="#ffc33b" d="M309.6 58.05l-138.8 139.2c-1.6 1.6-2.4 3.6-2.4 5.6v64.4h64.4c2 0 4-.8 5.6-2.4l139.2-139.2"/><path fill="#f5e6c6" d="M172.8 199.65H196c2.4 0 4 1.6 4 4v28c0 2.4 1.6 4 4 4h28c2.4 0 4 1.6 4 4v26.4h-63.2v-66.4z"/><path fill="#c39215" d="M232.8 275.25h-64.4c-4.4 0-8-3.6-8-8v-64.4c0-4.4 1.6-8.4 4.8-11.2L304 52.45c3.2-3.2 8-3.2 11.2 0s3.2 8 0 11.2l-138.8 139.2v56.4h56.4L372 120.05c3.2-3.2 8-3.2 11.2 0s3.2 8 0 11.2L244 270.45c-2.8 3.2-6.8 4.8-11.2 4.8z"/><path fill="#f285f7" d="M309.6 58.05l68 68 16.8-16.8c12.4-12.4 12.4-32.8 0-45.2l-22.8-22.8c-12.4-12.4-32.8-12.4-45.2 0l-16.8 16.8z"/><path fill="#e229cc" d="M377.6 134.05c-2 0-4-.8-5.6-2.4l-68-68c-3.2-3.2-3.2-8 0-11.2l16.8-16.8c15.6-15.6 40.8-15.6 56.4 0l22.8 22.8c7.6 7.6 11.6 17.6 11.6 28.4s-4 20.8-11.6 28.4l-16.8 16.8c-1.6 1.2-3.6 2-5.6 2zm-56.8-76l56.8 56.8 11.2-11.2c4.4-4.4 6.8-10.4 6.8-16.8s-2.4-12.4-6.8-16.8L366 47.25c-9.2-9.2-24.4-9.2-34 0l-11.2 10.8z"/><path fill="#c39215" d="M236 274.05c-4.4 0-8-3.6-8-8v-22.4h-24c-6.8 0-12-5.2-12-12v-24h-19.2c-4.4 0-8-3.6-8-8s3.6-8 8-8H196c6.8 0 12 5.2 12 12v24h24c6.8 0 12 5.2 12 12v26.4c0 4.4-3.6 8-8 8zm-40-66.4z"/><path fill="#6b513a" d="M160 283.65c-2 0-4-.8-5.6-2.4-3.2-3.2-3.2-8 0-11.2l5.6-5.6c3.2-3.2 8-3.2 11.2 0s3.2 8 0 11.2l-5.6 5.6c-1.6 1.6-3.6 2.4-5.6 2.4z"/></svg>